<svg width="96" height="36" viewBox="0 0 96 36" fill="none" xmlns="http://www.w3.org/2000/svg">
<path d="M0.549805 0.800049H96.0088V35.91H0.549805V0.800049Z" fill="#333333" fill-opacity="0.6"/>
<g clip-path="url(#clip0_25_7445)">
<path d="M20.9855 23.95H19.617V15.7712H16.6546V14.6764C17.041 14.6764 17.4167 14.6495 17.7816 14.5959C18.1465 14.5315 18.4739 14.4188 18.7637 14.2578C19.0642 14.0968 19.3165 13.8767 19.5204 13.5977C19.7243 13.3186 19.8639 12.9644 19.939 12.5351H20.9855V23.95ZM26.6956 15.4975C26.6956 15.8087 26.7493 16.0824 26.8566 16.3186C26.9639 16.544 27.1088 16.7318 27.2913 16.8821C27.4738 17.0323 27.6884 17.145 27.9353 17.2202C28.1822 17.2953 28.4451 17.3329 28.7242 17.3329C29.2716 17.3329 29.7224 17.1719 30.0766 16.8499C30.4308 16.5279 30.6079 16.0771 30.6079 15.4975C30.6079 14.9179 30.4254 14.4832 30.0605 14.1934C29.7063 13.8928 29.2501 13.7426 28.692 13.7426C28.4237 13.7426 28.1661 13.7801 27.9192 13.8553C27.6723 13.9304 27.4577 14.0431 27.2752 14.1934C27.1035 14.3436 26.9639 14.5261 26.8566 14.7408C26.7493 14.9554 26.6956 15.2077 26.6956 15.4975ZM25.2466 15.4492C25.2466 14.9769 25.3378 14.5637 25.5203 14.2095C25.7028 13.8445 25.9496 13.5386 26.2609 13.2917C26.5722 13.0449 26.9264 12.8571 27.3235 12.7283C27.7314 12.5995 28.1553 12.5351 28.5954 12.5351C29.2179 12.5351 29.7492 12.6209 30.1893 12.7927C30.6294 12.9537 30.9836 13.1737 31.2519 13.4528C31.531 13.7211 31.7349 14.0324 31.8637 14.3866C31.9925 14.73 32.0569 15.0842 32.0569 15.4492C32.0569 15.9644 31.912 16.4366 31.6222 16.866C31.3431 17.2846 30.9621 17.6012 30.4791 17.8159C31.166 18.0305 31.6759 18.3847 32.0086 18.8785C32.3413 19.3615 32.5077 19.9572 32.5077 20.6656C32.5077 21.2237 32.4057 21.7174 32.2018 22.1468C32.0086 22.5761 31.7403 22.941 31.3968 23.2416C31.0641 23.5314 30.6669 23.7514 30.2054 23.9017C29.7439 24.0519 29.2501 24.1271 28.7242 24.1271C28.1768 24.1271 27.667 24.0573 27.1947 23.9178C26.7224 23.7782 26.3092 23.5636 25.955 23.2738C25.6115 22.984 25.3378 22.6244 25.1339 22.1951C24.9407 21.755 24.8441 21.2452 24.8441 20.6656C24.8441 19.9894 25.0158 19.4044 25.3593 18.9107C25.7028 18.4062 26.1965 18.0413 26.8405 17.8159C26.3575 17.6227 25.9711 17.3114 25.6813 16.8821C25.3915 16.442 25.2466 15.9644 25.2466 15.4492ZM26.2931 20.73C26.2931 21.4169 26.5185 21.9589 26.9693 22.3561C27.4308 22.7425 28.0158 22.9357 28.7242 22.9357C29.0677 22.9357 29.3789 22.882 29.658 22.7747C29.9478 22.6566 30.1947 22.501 30.3986 22.3078C30.6133 22.1038 30.7743 21.8677 30.8816 21.5994C30.9997 21.331 31.0587 21.0359 31.0587 20.7139C31.0587 20.4026 30.9943 20.1182 30.8655 19.8606C30.7474 19.5922 30.5811 19.3615 30.3664 19.1683C30.1517 18.9751 29.8995 18.8248 29.6097 18.7175C29.3306 18.5994 29.0301 18.5404 28.7081 18.5404C28.3754 18.5404 28.0587 18.594 27.7582 18.7014C27.4684 18.798 27.2108 18.9429 26.9854 19.1361C26.7707 19.3293 26.599 19.56 26.4702 19.8284C26.3521 20.0967 26.2931 20.3972 26.2931 20.73ZM38.5237 19.3293H42.0335V20.4241H38.5237V23.95H37.4289V20.4241H33.9191V19.3293H37.4289V15.8034H38.5237V19.3293Z" fill="white"/>
</g>
<defs>
<clipPath id="clip0_25_7445">
<rect width="29.55" height="19.31" fill="white" transform="translate(15.2539 8.69995)"/>
</clipPath>
</defs>
</svg>
