<svg width="39" height="20" viewBox="0 0 39 20" fill="none" xmlns="http://www.w3.org/2000/svg">
<g clip-path="url(#clip0_30_9505)">
<path d="M11.5738 15.64H10.3838V8.52801H7.80784V7.57601C8.14384 7.57601 8.47051 7.55268 8.78784 7.50601C9.10518 7.45001 9.38984 7.35201 9.64184 7.21201C9.90318 7.07201 10.1225 6.88068 10.2998 6.63801C10.4772 6.39535 10.5985 6.08735 10.6638 5.71401H11.5738V15.64ZM16.5391 8.29001C16.5391 8.56068 16.5858 8.79868 16.6791 9.00401C16.7725 9.20001 16.8985 9.36335 17.0571 9.49401C17.2158 9.62468 17.4025 9.72268 17.6171 9.78801C17.8318 9.85335 18.0605 9.88601 18.3031 9.88601C18.7791 9.88601 19.1711 9.74601 19.4791 9.46601C19.7871 9.18601 19.9411 8.79401 19.9411 8.29001C19.9411 7.78601 19.7825 7.40801 19.4651 7.15601C19.1571 6.89468 18.7605 6.76401 18.2751 6.76401C18.0418 6.76401 17.8178 6.79668 17.6031 6.86201C17.3885 6.92735 17.2018 7.02535 17.0431 7.15601C16.8938 7.28668 16.7725 7.44535 16.6791 7.63201C16.5858 7.81868 16.5391 8.03801 16.5391 8.29001ZM15.2791 8.24801C15.2791 7.83735 15.3585 7.47801 15.5171 7.17001C15.6758 6.85268 15.8905 6.58668 16.1611 6.37201C16.4318 6.15735 16.7398 5.99401 17.0851 5.88201C17.4398 5.77001 17.8085 5.71401 18.1911 5.71401C18.7325 5.71401 19.1945 5.78868 19.5771 5.93801C19.9598 6.07801 20.2678 6.26935 20.5011 6.51201C20.7438 6.74535 20.9211 7.01601 21.0331 7.32401C21.1451 7.62268 21.2011 7.93068 21.2011 8.24801C21.2011 8.69601 21.0751 9.10668 20.8231 9.48001C20.5805 9.84401 20.2491 10.1193 19.8291 10.306C20.4265 10.4927 20.8698 10.8007 21.1591 11.23C21.4485 11.65 21.5931 12.168 21.5931 12.784C21.5931 13.2693 21.5045 13.6987 21.3271 14.072C21.1591 14.4453 20.9258 14.7627 20.6271 15.024C20.3378 15.276 19.9925 15.4673 19.5911 15.598C19.1898 15.7287 18.7605 15.794 18.3031 15.794C17.8271 15.794 17.3838 15.7333 16.9731 15.612C16.5625 15.4907 16.2031 15.304 15.8951 15.052C15.5965 14.8 15.3585 14.4873 15.1811 14.114C15.0131 13.7313 14.9291 13.288 14.9291 12.784C14.9291 12.196 15.0785 11.6873 15.3771 11.258C15.6758 10.8193 16.1051 10.502 16.6651 10.306C16.2451 10.138 15.9091 9.86735 15.6571 9.49401C15.4051 9.11135 15.2791 8.69601 15.2791 8.24801ZM16.1891 12.84C16.1891 13.4373 16.3851 13.9087 16.7771 14.254C17.1785 14.59 17.6871 14.758 18.3031 14.758C18.6018 14.758 18.8725 14.7113 19.1151 14.618C19.3671 14.5153 19.5818 14.38 19.7591 14.212C19.9458 14.0347 20.0858 13.8293 20.1791 13.596C20.2818 13.3627 20.3331 13.106 20.3331 12.826C20.3331 12.5553 20.2771 12.308 20.1651 12.084C20.0625 11.8507 19.9178 11.65 19.7311 11.482C19.5445 11.314 19.3251 11.1833 19.0731 11.09C18.8305 10.9873 18.5691 10.936 18.2891 10.936C17.9998 10.936 17.7245 10.9827 17.4631 11.076C17.2111 11.16 16.9871 11.286 16.7911 11.454C16.6045 11.622 16.4551 11.8227 16.3431 12.056C16.2405 12.2893 16.1891 12.5507 16.1891 12.84ZM26.8244 11.622H29.8764V12.574H26.8244V15.64H25.8724V12.574H22.8204V11.622H25.8724V8.55601H26.8244V11.622Z" fill="white"/>
</g>
<rect x="0.5" y="0.890015" width="37.9" height="18.5" stroke="white" stroke-opacity="0.4"/>
<defs>
<clipPath id="clip0_30_9505">
<rect y="0.390015" width="38.9" height="19.5" fill="white"/>
</clipPath>
</defs>
</svg>
