<svg width="33" height="33" viewBox="0 0 33 33" fill="none" xmlns="http://www.w3.org/2000/svg">
<path fill-rule="evenodd" clip-rule="evenodd" d="M29.5123 10.8168H29.8908C31.368 12.5478 32.2081 14.7635 32.2081 17.067C32.2081 19.1119 31.548 21.0969 30.3708 22.7171H29.9877H29.3415H28.9629C30.2877 21.1385 31.0356 19.1489 31.0356 17.067C31.0356 14.7221 30.08 12.4647 28.4228 10.8168H28.8013H29.5123ZM9.42642 22.7629H12.0392V10.8256H8.77555L0.208008 22.7629H4.04402L5.05033 21.1842H9.42642V22.7629ZM6.69134 18.6966H9.44257V14.4221L6.69134 18.6966ZM16.6105 13.6205C18.3693 13.6205 19.7865 15.0469 19.7865 16.7965C19.7865 18.5505 18.3693 19.9769 16.6105 19.9769H15.7796V13.6205H16.6105ZM16.9337 22.7558C20.2251 22.7558 22.9024 20.0831 22.9024 16.7965C22.9024 13.4959 20.2527 10.8278 16.9613 10.8278H16.9244H13.2731V22.7605H16.9337V22.7558ZM26.8884 10.8168H26.5099H25.7989H25.4204C27.0776 12.4647 28.0332 14.7221 28.0332 17.067C28.0332 19.1489 27.2853 21.1385 25.9605 22.7171H26.3391H26.9853H27.3592C28.5455 21.0969 29.2056 19.1119 29.2056 17.067C29.2056 14.7635 28.3655 12.5478 26.8884 10.8168ZM23.5073 10.8168H23.8859C25.3631 12.5478 26.194 14.7635 26.194 17.067C26.194 19.1119 25.5431 21.0969 24.3568 22.7171H23.9783H23.3365H22.958C24.2736 21.1385 25.0215 19.1489 25.0215 17.067C25.0215 14.7221 24.0752 12.4647 22.418 10.8168H22.7872H23.5073Z" fill="#BCBCBC"/>
</svg>
