<svg width="22" height="21" viewBox="0 0 22 21" fill="none" xmlns="http://www.w3.org/2000/svg">
<path fill-rule="evenodd" clip-rule="evenodd" d="M12.0898 2.41089C15.482 2.89621 18.0896 5.81357 18.0896 9.33997V13.5938C19.1385 13.6707 20.1747 13.7645 21.1968 13.8747L20.9824 15.8632C17.8118 15.5213 14.4988 15.34 11.0896 15.34C7.68041 15.34 4.36748 15.5213 1.19683 15.8632L0.982422 13.8747C2.00458 13.7645 3.04079 13.6707 4.08963 13.5938V9.33997C4.08963 5.81342 6.69744 2.89596 10.0898 2.41083V0.339966H12.0898V2.41089ZM16.0896 13.4687V9.33997C16.0896 6.57855 13.851 4.33997 11.0896 4.33997C8.3282 4.33997 6.08963 6.57855 6.08963 9.33997V13.4687C7.73026 13.3837 9.3987 13.34 11.0896 13.34C12.7806 13.34 14.449 13.3837 16.0896 13.4687ZM7.71553 17.7112C7.75195 18.8573 9.2408 20.34 11.0892 20.34C12.9376 20.34 14.4264 18.8573 14.4628 17.7112C14.4699 17.4889 14.2654 17.34 14.0429 17.34H8.1354C7.91293 17.34 7.70846 17.4889 7.71553 17.7112Z" fill="white"/>
</svg>
