<svg width="30" height="30" viewBox="0 0 30 30" fill="none" xmlns="http://www.w3.org/2000/svg">
<circle cx="15" cy="15" r="15" fill="#BCBCBC"/>
<path d="M8.29279 8.29296C8.48031 8.10549 8.73462 8.00017 8.99979 8.00017C9.26495 8.00017 9.51926 8.10549 9.70679 8.29296L14.9998 13.586L20.2928 8.29296C20.385 8.19745 20.4954 8.12127 20.6174 8.06886C20.7394 8.01645 20.8706 7.98886 21.0034 7.98771C21.1362 7.98655 21.2678 8.01186 21.3907 8.06214C21.5136 8.11242 21.6253 8.18667 21.7192 8.28056C21.8131 8.37446 21.8873 8.48611 21.9376 8.60901C21.9879 8.7319 22.0132 8.86358 22.012 8.99636C22.0109 9.12914 21.9833 9.26036 21.9309 9.38236C21.8785 9.50437 21.8023 9.61471 21.7068 9.70696L16.4138 15L21.7068 20.293C21.8889 20.4816 21.9897 20.7342 21.9875 20.9964C21.9852 21.2586 21.88 21.5094 21.6946 21.6948C21.5092 21.8802 21.2584 21.9854 20.9962 21.9876C20.734 21.9899 20.4814 21.8891 20.2928 21.707L14.9998 16.414L9.70679 21.707C9.51818 21.8891 9.26558 21.9899 9.00338 21.9876C8.74119 21.9854 8.49038 21.8802 8.30497 21.6948C8.11956 21.5094 8.01439 21.2586 8.01211 20.9964C8.00983 20.7342 8.11063 20.4816 8.29279 20.293L13.5858 15L8.29279 9.70696C8.10532 9.51943 8 9.26512 8 8.99996C8 8.7348 8.10532 8.48049 8.29279 8.29296Z" fill="#181818"/>
</svg>
