<svg width="24" height="25" viewBox="0 0 24 25" fill="none" xmlns="http://www.w3.org/2000/svg">
<path d="M14.9998 22.5801V18.5801C15.1389 17.3274 14.7797 16.0702 13.9998 15.0801C16.9998 15.0801 19.9998 13.0801 19.9998 9.58008C20.0798 8.33008 19.7298 7.10008 18.9998 6.08008C19.2798 4.93008 19.2798 3.73008 18.9998 2.58008C18.9998 2.58008 17.9998 2.58008 15.9998 4.08008C13.3598 3.58008 10.6398 3.58008 7.99979 4.08008C5.99979 2.58008 4.99979 2.58008 4.99979 2.58008C4.69979 3.73008 4.69979 4.93008 4.99979 6.08008C4.27167 7.09596 3.91827 8.33286 3.99979 9.58008C3.99979 13.0801 6.99979 15.0801 9.99979 15.0801C9.60979 15.5701 9.31979 16.1301 9.14979 16.7301C8.97979 17.3301 8.92979 17.9601 8.99979 18.5801V22.5801" stroke="white" stroke-width="2" stroke-linecap="round" stroke-linejoin="round"/>
<path d="M9 18.5801C4.49 20.5801 4 16.5801 2 16.5801" stroke="white" stroke-width="2" stroke-linecap="round" stroke-linejoin="round"/>
</svg>
