<svg width="30" height="16" viewBox="0 0 30 16" fill="none" xmlns="http://www.w3.org/2000/svg">
<rect x="0.5" y="0.570068" width="28.2" height="14.44" rx="2.5" stroke="white" stroke-opacity="0.4"/>
<path d="M7.4737 3.32327H8.5377V6.76167H12.7489V3.32327H13.8129V11.3201H12.7489V7.65767H8.5377V11.3201H7.4737V3.32327ZM16.6205 10.4241H18.3901C18.5096 10.4241 18.6589 10.4166 18.8381 10.4017C19.0173 10.3793 19.2077 10.3345 19.4093 10.2673C19.6109 10.1926 19.8088 10.0881 20.0029 9.95367C20.2045 9.81927 20.3837 9.63634 20.5405 9.40487C20.6973 9.1734 20.8242 8.88593 20.9213 8.54247C21.0258 8.19153 21.0781 7.76967 21.0781 7.27687C21.0781 6.799 21.0296 6.3734 20.9325 6.00007C20.8429 5.61927 20.6898 5.2982 20.4733 5.03687C20.2642 4.76807 19.9917 4.56647 19.6557 4.43207C19.3197 4.2902 18.9053 4.21927 18.4125 4.21927H16.6205V10.4241ZM15.5565 3.32327H18.3005C19.5325 3.32327 20.4808 3.63687 21.1453 4.26407C21.8098 4.89127 22.1421 5.847 22.1421 7.13127C22.1421 7.80327 22.0674 8.4006 21.9181 8.92327C21.7688 9.43847 21.5373 9.87527 21.2237 10.2337C20.9101 10.5846 20.5106 10.8534 20.0253 11.0401C19.54 11.2267 18.965 11.3201 18.3005 11.3201H15.5565V3.32327Z" fill="white" fill-opacity="0.9"/>
</svg>
