<svg width="24" height="25" viewBox="0 0 24 25" fill="none" xmlns="http://www.w3.org/2000/svg">
<path d="M16 8.58008C17.5913 8.58008 19.1174 9.21222 20.2426 10.3374C21.3679 11.4627 22 12.9888 22 14.5801V21.5801H18V14.5801C18 14.0496 17.7893 13.5409 17.4142 13.1659C17.0391 12.7908 16.5304 12.5801 16 12.5801C15.4696 12.5801 14.9609 12.7908 14.5858 13.1659C14.2107 13.5409 14 14.0496 14 14.5801V21.5801H10V14.5801C10 12.9888 10.6321 11.4627 11.7574 10.3374C12.8826 9.21222 14.4087 8.58008 16 8.58008Z" stroke="white" stroke-width="2" stroke-linecap="round" stroke-linejoin="round"/>
<path d="M6 9.58008H2V21.5801H6V9.58008Z" stroke="white" stroke-width="2" stroke-linecap="round" stroke-linejoin="round"/>
<path d="M4 6.58008C5.10457 6.58008 6 5.68465 6 4.58008C6 3.47551 5.10457 2.58008 4 2.58008C2.89543 2.58008 2 3.47551 2 4.58008C2 5.68465 2.89543 6.58008 4 6.58008Z" stroke="white" stroke-width="2" stroke-linecap="round" stroke-linejoin="round"/>
</svg>
