<svg width="25" height="25" viewBox="0 0 25 25" fill="none" xmlns="http://www.w3.org/2000/svg">
<path fill-rule="evenodd" clip-rule="evenodd" d="M17.3701 10.35C17.3701 14.216 14.2361 17.35 10.3701 17.35C6.50413 17.35 3.37012 14.216 3.37012 10.35C3.37012 6.48399 6.50413 3.34998 10.3701 3.34998C14.2361 3.34998 17.3701 6.48399 17.3701 10.35ZM15.9878 17.3819C14.4481 18.6135 12.4951 19.35 10.3701 19.35C5.39956 19.35 1.37012 15.3206 1.37012 10.35C1.37012 5.37942 5.39956 1.34998 10.3701 1.34998C15.3407 1.34998 19.3701 5.37942 19.3701 10.35C19.3701 12.475 18.6336 14.428 17.402 15.9677L23.0772 21.6429L21.663 23.0571L15.9878 17.3819Z" fill="white"/>
</svg>
