<svg width="16" height="17" viewBox="0 0 16 17" fill="none" xmlns="http://www.w3.org/2000/svg">
<path fill-rule="evenodd" clip-rule="evenodd" d="M0.75 2.7002C0.335786 2.7002 0 3.03599 0 3.4502V12.9502C0 13.9167 0.783501 14.7002 1.75 14.7002H14.25C15.2165 14.7002 16 13.9167 16 12.9502V3.4502C16 3.03599 15.6642 2.7002 15.25 2.7002H0.75ZM8 8.70998L2.76865 4.2002H13.2313L8 8.70998ZM8.4897 10.2683L14.5 5.08697V12.9502C14.5 13.0883 14.3881 13.2002 14.25 13.2002H1.75C1.61193 13.2002 1.5 13.0883 1.5 12.9502V5.08697L7.5103 10.2683L8 10.6904L8.4897 10.2683Z" fill="white"/>
</svg>
