<svg width="17" height="33" viewBox="0 0 17 33" fill="none" xmlns="http://www.w3.org/2000/svg">
<path fill-rule="evenodd" clip-rule="evenodd" d="M0.208008 10.54C0.208008 10.1258 0.543794 9.79004 0.958008 9.79004H15.458C15.8722 9.79004 16.208 10.1258 16.208 10.54V21.04C16.208 21.4542 15.8722 21.79 15.458 21.79H12.958V23.79C12.958 24.0552 12.818 24.3006 12.5897 24.4356C12.3615 24.5706 12.0789 24.575 11.8466 24.4472L7.01537 21.79H0.958008C0.543794 21.79 0.208008 21.4542 0.208008 21.04V10.54ZM1.70801 11.29V20.29H7.20801H7.40065L7.56945 20.3828L11.458 22.5215V21.04V20.29H12.208H14.708V11.29H1.70801ZM6.20801 15.29H3.20801V13.79H6.20801V15.29ZM13.208 16.29H10.208V17.79H13.208V16.29ZM3.20801 17.79V16.29H9.20801V17.79H3.20801ZM13.208 13.79H7.20801V15.29H13.208V13.79Z" fill="#BCBCBC"/>
</svg>
