<svg width="27" height="28" viewBox="0 0 27 28" fill="none" xmlns="http://www.w3.org/2000/svg">
<path fill-rule="evenodd" clip-rule="evenodd" d="M13.665 3.03425C7.60597 3.03425 2.69417 7.94606 2.69417 14.0051C2.69417 20.0641 7.60597 24.9759 13.665 24.9759C19.724 24.9759 24.6358 20.0641 24.6358 14.0051C24.6358 7.94606 19.724 3.03425 13.665 3.03425ZM0.5 14.0051C0.5 6.73426 6.39417 0.840088 13.665 0.840088C20.9358 0.840088 26.83 6.73426 26.83 14.0051C26.83 21.2759 20.9358 27.1701 13.665 27.1701C6.39417 27.1701 0.5 21.2759 0.5 14.0051ZM14.7621 11.8109V20.5876H12.5679V11.8109H14.7621ZM13.665 10.1653C14.5738 10.1653 15.3106 9.42853 15.3106 8.51967C15.3106 7.61081 14.5738 6.87405 13.665 6.87405C12.7562 6.87405 12.0194 7.61081 12.0194 8.51967C12.0194 9.42853 12.7562 10.1653 13.665 10.1653Z" fill="white"/>
</svg>
