<svg width="24" height="25" viewBox="0 0 24 25" fill="none" xmlns="http://www.w3.org/2000/svg">
<path d="M13.2339 20.8321L20.9999 12.8801" stroke="white" stroke-width="2" stroke-linecap="round" stroke-linejoin="round"/>
<path d="M16 6.57996L7.58602 15.166C7.21108 15.541 7.00045 16.0496 7.00045 16.58C7.00045 17.1103 7.21108 17.6189 7.58602 17.994C7.96107 18.3689 8.46969 18.5795 9.00002 18.5795C9.53035 18.5795 10.039 18.3689 10.414 17.994L18.828 9.40796C19.5779 8.65785 19.9992 7.64061 19.9992 6.57996C19.9992 5.5193 19.5779 4.50207 18.828 3.75196C18.0779 3.00207 17.0607 2.58081 16 2.58081C14.9394 2.58081 13.9221 3.00207 13.172 3.75196L4.75702 12.337C3.63171 13.4623 2.99951 14.9885 2.99951 16.58C2.99951 18.1714 3.63171 19.6976 4.75702 20.823C5.88233 21.9483 7.40859 22.5805 9.00002 22.5805C10.5915 22.5805 12.1177 21.9483 13.243 20.823" stroke="white" stroke-width="2" stroke-linecap="round" stroke-linejoin="round"/>
</svg>
