<svg width="37" height="36" viewBox="0 0 37 36" fill="none" xmlns="http://www.w3.org/2000/svg">
<path d="M31.3384 0.890015H5.59151C3.65247 0.890015 2.08057 2.46192 2.08057 4.40095V32.4885C2.08057 34.4275 3.65247 35.9994 5.59151 35.9994H31.3384C33.2774 35.9994 34.8493 34.4275 34.8493 32.4885V4.40095C34.8493 2.46192 33.2774 0.890015 31.3384 0.890015Z" fill="#E50914"/>
<path d="M21.7664 26.8348C22.4594 26.8348 23.003 26.5032 23.3971 25.8408C23.7912 25.1777 23.9886 24.2462 23.9886 23.0451C23.9886 21.844 23.7912 20.9119 23.3971 20.2487C23.003 19.5863 22.4594 19.2547 21.7664 19.2547C21.0734 19.2547 20.5298 19.5863 20.135 20.2487C19.7409 20.9119 19.5442 21.844 19.5442 23.0451C19.5442 24.2462 19.7409 25.1777 20.135 25.8408C20.5298 26.5032 21.0734 26.8348 21.7664 26.8348ZM21.7664 29.0605C20.7905 29.0605 19.9369 28.8144 19.205 28.323C18.4737 27.8315 17.9086 27.1357 17.5117 26.2349C17.1148 25.3341 16.916 24.2713 16.916 23.0451C16.916 21.8294 17.1148 20.7687 17.5117 19.863C17.9086 18.9572 18.4737 18.2587 19.205 17.7665C19.9369 17.2751 20.7905 17.0291 21.7664 17.0291C22.7416 17.0291 23.5959 17.2751 24.3278 17.7665C25.0598 18.2587 25.6235 18.9572 26.0211 19.863C26.4173 20.7687 26.6168 21.8294 26.6168 23.0451C26.6168 24.2713 26.4173 25.3341 26.0211 26.2349C25.6235 27.1357 25.0598 27.8315 24.3278 28.323C23.5959 28.8144 22.7416 29.0605 21.7664 29.0605Z" fill="white"/>
<path d="M12.4575 28.8716V20.3935L10.1338 20.9941V18.359L15.0419 17.1057V28.8716H12.4575Z" fill="white"/>
<path d="M25.532 11.9174H26.4329C26.8777 11.9174 27.2003 11.8305 27.4004 11.656C27.6006 11.4823 27.7007 11.2355 27.7007 10.9165C27.7007 10.605 27.6006 10.3645 27.4004 10.1936C27.2003 10.0233 26.8777 9.93776 26.4329 9.93776H25.532V11.9174ZM23.4189 15.91V8.16943H26.7665C27.397 8.16943 27.9412 8.28412 28.4014 8.5142C28.8608 8.74428 29.2167 9.0668 29.4691 9.48177C29.7207 9.89744 29.8472 10.3757 29.8472 10.9165C29.8472 11.4725 29.7207 11.9584 29.4691 12.3734C29.2167 12.7883 28.8608 13.1116 28.4014 13.3409C27.9412 13.571 27.397 13.6857 26.7665 13.6857H25.532V15.91H23.4189Z" fill="white"/>
<path d="M18.5477 14.2308C18.9259 14.2308 19.2574 14.1404 19.5431 13.9583C19.8288 13.7769 20.0512 13.5211 20.2104 13.1909C20.3703 12.8607 20.4495 12.4777 20.4495 12.0398C20.4495 11.6026 20.3703 11.2189 20.2104 10.8887C20.0512 10.5586 19.8288 10.3035 19.5431 10.1214C19.2574 9.93994 18.9259 9.84888 18.5477 9.84888C18.1696 9.84888 17.8381 9.93994 17.5524 10.1214C17.2667 10.3035 17.0443 10.5586 16.8851 10.8887C16.7259 11.2189 16.646 11.6026 16.646 12.0398C16.646 12.4777 16.7259 12.8607 16.8851 13.1909C17.0443 13.5211 17.2667 13.7769 17.5524 13.9583C17.8381 14.1404 18.1696 14.2308 18.5477 14.2308ZM18.5477 16.0992C17.9541 16.0992 17.4113 15.9977 16.9184 15.7933C16.4256 15.5897 15.9974 15.304 15.6339 14.937C15.2711 14.57 14.9909 14.1404 14.7942 13.6469C14.5975 13.1541 14.4995 12.6181 14.4995 12.0398C14.4995 11.4615 14.5975 10.9263 14.7942 10.4328C14.9909 9.93994 15.2711 9.50968 15.6339 9.14267C15.9974 8.77566 16.4256 8.49067 16.9184 8.28631C17.4113 8.08265 17.9541 7.98047 18.5477 7.98047C19.1414 7.98047 19.6842 8.08265 20.177 8.28631C20.6699 8.49067 21.098 8.77566 21.4616 9.14267C21.8251 9.50968 22.1045 9.93994 22.3013 10.4328C22.498 10.9263 22.596 11.4615 22.596 12.0398C22.596 12.6181 22.498 13.1541 22.3013 13.6469C22.1045 14.1404 21.8251 14.57 21.4616 14.937C21.098 15.304 20.6699 15.5897 20.177 15.7933C19.6842 15.9977 19.1414 16.0992 18.5477 16.0992Z" fill="white"/>
<path d="M11.9861 15.91L9.87301 16.416V9.99336H7.52637V8.16943H14.3327V9.99336H11.9861V15.91Z" fill="white"/>
</svg>
